<?xml version="1.0" encoding="UTF-8"?>
<svg id="Layer_2" data-name="Layer 2" xmlns="http://www.w3.org/2000/svg" viewBox="0 0 1411.85 1269.12">
  <defs>
    <style>
      .cls-1 {
        fill: #2b3847;
      }
    </style>
  </defs>
  <g id="Capa_1" data-name="Capa 1">
    <g>
      <path class="cls-1" d="M1197.64,577.52v-81.82c0-32.62,22.61-59.9,53.05-67.02l-35.72-32.37-17.33-15.7-49.84-45.17-66.15-59.96-51.11-46.29v348.32h-85.82v-312.65c0-32.06,21.95-58.99,51.62-66.66l-51.62-46.8L777.59,0v577.52h-143.38V.05l-167.11,151.41-51.62,46.74c29.67,7.62,51.62,34.6,51.62,66.66v312.65h-85.82V229.2l-51.06,46.29-66.15,59.96-49.84,45.12-17.33,15.7-35.77,32.42c30.44,7.06,53.1,34.4,53.1,67.02v81.82H0l92.52,94.4,29.16,29.72,25,25.51c1.83-9.3,5.59-17.94,10.82-25.51,12.45-17.94,33.18-29.72,56.7-29.72h252.88v357.88l66.76-68.14,46.14-47,54.21-55.33v-187.42h143.38v187.36l54.26,55.38,46.08,46.95,66.76,68.14v-357.83h252.93c23.52,0,44.26,11.79,56.7,29.72,5.23,7.57,8.99,16.21,10.82,25.51l25-25.51,29.16-29.72,92.52-94.4h-214.21Z"/>
      <path class="cls-1" d="M1197.64,916.86v-215.21h-167.11v251.33c0,17.73-1.88,35.01-5.39,51.67-5.79,27.39-16.11,53.15-30.13,76.37-13.57,22.51-30.54,42.63-50.3,59.75-3.25,2.79-6.55,5.54-9.96,8.18l-25.56-26.07-57.42-58.58-74.18-75.66-9.15-9.3-62.5-63.82-62.55,63.82-9.2,9.35-74.18,75.66-57.36,58.53-25.56,26.07c-3.4-2.59-6.76-5.33-10.01-8.18-19.71-17.07-36.74-37.24-50.25-59.7-14.07-23.27-24.39-49.08-30.18-76.52-3.56-16.61-5.39-33.89-5.39-51.57v-251.33h-167.06v215.21c0,35.97-27.59,65.49-62.8,68.54l62.8,64.07,116.81,119.15,50.25,51.27,13.16,13.41,35.11,35.82h56.14l124.15-127.02c1.05-1.31,1.91-2.78,3.03-4.02.56-.56,1.12-1.17,1.68-1.73.46-.46.91-.97,1.37-1.42l18.29-18.65,71.74-73.17,71.64,73.11,18.65,19.05c.36.35.66.66,1.02,1.02v.05c1.41,1.46,2.5,3.2,3.8,4.76l125.11,128h56.14l35.11-35.82,13.11-13.36,50.3-51.32,116.81-119.15,62.8-64.07c-35.21-3.05-62.8-32.57-62.8-68.54Z"/>
    </g>
  </g>
</svg>